<svg width="512" height="512" viewBox="0 0 512 512" fill="none" xmlns="http://www.w3.org/2000/svg">
<path d="M480 86.8797V152H32V86.8797C32.1645 74.303 37.3101 62.3048 46.3084 53.5165C55.3066 44.7283 67.4229 39.8673 80 39.9997H112V71.9997C112 84.7301 117.057 96.9391 126.059 105.941C135.061 114.943 147.27 120 160 120C172.73 120 184.939 114.943 193.941 105.941C202.943 96.9391 208 84.7301 208 71.9997V39.9997H304V71.9997C304 84.7301 309.057 96.9391 318.059 105.941C327.061 114.943 339.27 120 352 120C364.73 120 376.939 114.943 385.941 105.941C394.943 96.9391 400 84.7301 400 71.9997V39.9997H432C444.577 39.8673 456.693 44.7283 465.692 53.5165C474.69 62.3048 479.835 74.303 480 86.8797ZM32 184V441.12C32.1645 453.696 37.3101 465.695 46.3084 474.483C55.3066 483.271 67.4229 488.132 80 488H432C444.577 488.132 456.693 483.271 465.692 474.483C474.69 465.695 479.835 453.696 480 441.12V184H32ZM176 408C175.987 412.239 174.298 416.302 171.3 419.299C168.302 422.297 164.24 423.987 160 424H128C123.76 423.987 119.698 422.297 116.7 419.299C113.702 416.302 112.013 412.239 112 408V376C112.013 371.76 113.702 367.698 116.7 364.7C119.698 361.702 123.76 360.012 128 360H160C164.24 360.012 168.302 361.702 171.3 364.7C174.298 367.698 175.987 371.76 176 376V408ZM176 296C175.987 300.239 174.298 304.302 171.3 307.299C168.302 310.297 164.24 311.987 160 312H128C123.76 311.987 119.698 310.297 116.7 307.299C113.702 304.302 112.013 300.239 112 296V264C112.013 259.76 113.702 255.698 116.7 252.7C119.698 249.702 123.76 248.012 128 248H160C164.24 248.012 168.302 249.702 171.3 252.7C174.298 255.698 175.987 259.76 176 264V296ZM288 408C287.987 412.239 286.298 416.302 283.3 419.299C280.302 422.297 276.24 423.987 272 424H240C235.76 423.987 231.698 422.297 228.7 419.299C225.702 416.302 224.013 412.239 224 408V376C224.013 371.76 225.702 367.698 228.7 364.7C231.698 361.702 235.76 360.012 240 360H272C276.24 360.012 280.302 361.702 283.3 364.7C286.298 367.698 287.987 371.76 288 376V408ZM288 296C287.987 300.239 286.298 304.302 283.3 307.299C280.302 310.297 276.24 311.987 272 312H240C235.76 311.987 231.698 310.297 228.7 307.299C225.702 304.302 224.013 300.239 224 296V264C224.013 259.76 225.702 255.698 228.7 252.7C231.698 249.702 235.76 248.012 240 248H272C276.24 248.012 280.302 249.702 283.3 252.7C286.298 255.698 287.987 259.76 288 264V296ZM400 296C399.987 300.239 398.298 304.302 395.3 307.299C392.302 310.297 388.24 311.987 384 312H352C347.76 311.987 343.698 310.297 340.7 307.299C337.702 304.302 336.013 300.239 336 296V264C336.013 259.76 337.702 255.698 340.7 252.7C343.698 249.702 347.76 248.012 352 248H384C388.24 248.012 392.302 249.702 395.3 252.7C398.298 255.698 399.987 259.76 400 264V296Z" fill="black"/>
<path d="M176 40V72C176 76.2435 174.314 80.3131 171.314 83.3137C168.313 86.3143 164.243 88 160 88C155.757 88 151.687 86.3143 148.686 83.3137C145.686 80.3131 144 76.2435 144 72V40C144 35.7565 145.686 31.6869 148.686 28.6863C151.687 25.6857 155.757 24 160 24C164.243 24 168.313 25.6857 171.314 28.6863C174.314 31.6869 176 35.7565 176 40ZM368 40V72C368 76.2435 366.314 80.3131 363.314 83.3137C360.313 86.3143 356.243 88 352 88C347.757 88 343.687 86.3143 340.686 83.3137C337.686 80.3131 336 76.2435 336 72V40C336 35.7565 337.686 31.6869 340.686 28.6863C343.687 25.6857 347.757 24 352 24C356.243 24 360.313 25.6857 363.314 28.6863C366.314 31.6869 368 35.7565 368 40Z" fill="black"/>
</svg>
