<svg width="512" height="512" viewBox="0 0 512 512" fill="none" xmlns="http://www.w3.org/2000/svg">
<g clip-path="url(#clip0_678_1294)">
<path d="M256.001 340.464C336.471 340.464 401.704 277.824 401.704 200.554C401.704 123.283 336.471 60.6436 256.001 60.6436C175.532 60.6436 110.299 123.283 110.299 200.554C110.299 277.824 175.532 340.464 256.001 340.464Z" fill="black"/>
<path d="M342.833 333.143C317.674 348.395 287.9 357.233 256.001 357.233C221.816 357.233 190.066 347.083 163.811 329.746C154.784 332.29 142.13 338.367 127.892 347.137C148.152 364.825 173.162 377.506 197.211 384.381C206.306 372.918 220.57 365.921 235.999 365.921H277.52C304.424 365.921 326.308 386.939 326.308 412.775C326.308 438.61 304.424 459.628 277.52 459.628H235.999C216.74 459.628 199.553 448.76 191.69 432.398C156.665 423.967 123.088 407.009 96.4675 384.192C93.4631 381.607 90.5669 378.968 87.7654 376.275C48.9917 408.782 11.5173 453.903 7.28125 499.051H502.61C480.794 422.803 420.583 360.115 342.833 333.143Z" fill="black"/>
<path d="M478.439 140.56H455.31C428.23 57.3824 347.516 0 256.001 0C164.487 0 83.7732 57.3824 56.6925 140.56H33.5636C7.75509 140.56 -13.249 160.725 -13.249 185.505V245.892C-13.249 270.672 7.75509 290.837 33.5636 290.837H52.4024C59.4669 321.977 77.656 350.763 105.427 374.569C132.318 397.617 166.396 414.127 201.813 421.409C205.805 435.957 219.623 446.73 236.012 446.73H277.533C297.035 446.73 312.897 431.505 312.897 412.774C312.897 394.044 297.035 378.818 277.533 378.818H236.012C221.491 378.818 208.986 387.277 203.545 399.335C144.891 386.14 82.8664 341.506 73.2035 278.277C73.1899 278.223 73.1764 278.169 73.1764 278.115C73.1493 277.966 73.1223 277.804 73.0817 277.655C73.0411 277.452 72.9869 277.235 72.9328 277.032L72.8922 276.843C65.5164 252.103 72.9057 180.281 76.4921 153.674C98.3894 76.0587 172.107 21.8973 256.001 21.8973C339.991 21.8973 413.776 76.1534 435.579 153.904C435.524 154.229 435.497 154.567 435.47 154.905C430.964 236.851 424.102 277.682 424.034 278.074C423.493 281.255 424.427 284.489 426.592 286.952C428.758 289.402 431.938 290.823 435.294 290.823H478.426C504.234 290.823 525.238 270.658 525.238 245.878V185.491C525.252 160.725 504.248 140.56 478.439 140.56Z" fill="black"/>
</g>
<defs>
<clipPath id="clip0_678_1294">
<rect width="512" height="512" fill="white"/>
</clipPath>
</defs>
</svg>
