<svg width="512" height="512" viewBox="0 0 512 512" fill="none" xmlns="http://www.w3.org/2000/svg">
<path d="M392.96 19.6924H119.04C81.2304 19.6924 50.3135 50.4124 50.3135 88.4185V423.582C50.3654 441.793 57.6229 459.244 70.5003 472.121C83.3777 484.998 100.828 492.256 119.04 492.308H392.96C411.171 492.256 428.622 484.998 441.499 472.121C454.376 459.244 461.634 441.793 461.686 423.582V88.4185C461.686 50.4124 430.769 19.6924 392.96 19.6924ZM254.936 420.214H161.043C155.403 420.214 149.993 417.974 146.005 413.985C142.016 409.997 139.776 404.587 139.776 398.947C139.776 393.306 142.016 387.896 146.005 383.908C149.993 379.92 155.403 377.679 161.043 377.679H254.936C260.577 377.679 265.986 379.92 269.975 383.908C273.963 387.896 276.204 393.306 276.204 398.947C276.204 404.587 273.963 409.997 269.975 413.985C265.986 417.974 260.577 420.214 254.936 420.214ZM350.917 318.622H161.043C155.403 318.622 149.993 316.381 146.005 312.392C142.016 308.404 139.776 302.994 139.776 297.354C139.776 291.713 142.016 286.304 146.005 282.315C149.993 278.327 155.403 276.086 161.043 276.086H350.917C356.557 276.086 361.967 278.327 365.955 282.315C369.944 286.304 372.184 291.713 372.184 297.354C372.184 302.994 369.944 308.404 365.955 312.392C361.967 316.381 356.557 318.622 350.917 318.622ZM379.155 127.134L310.921 203.146C303.97 210.905 292.411 212.441 283.667 206.887L217.501 164.687L163.997 220.495C160.096 224.569 154.736 226.926 149.097 227.048C143.457 227.169 138.001 225.046 133.927 221.145C129.853 217.243 127.496 211.883 127.374 206.244C127.252 200.605 129.376 195.148 133.277 191.075L198.853 122.663C205.902 115.338 217.107 113.999 225.634 119.434L291.328 161.319L347.51 98.6979C349.363 96.5754 351.62 94.8422 354.149 93.5992C356.677 92.3563 359.428 91.6282 362.241 91.4573C365.053 91.2865 367.872 91.6763 370.532 92.604C373.193 93.5317 375.643 94.979 377.739 96.8616C379.836 98.7442 381.538 101.025 382.745 103.571C383.953 106.116 384.643 108.877 384.775 111.692C384.906 114.506 384.477 117.319 383.513 119.967C382.548 122.614 381.067 125.063 379.155 127.134Z" fill="black"/>
</svg>
