<svg width="512" height="512" viewBox="0 0 512 512" fill="none" xmlns="http://www.w3.org/2000/svg">
<path d="M256.001 272C323.748 272 378.667 217.081 378.667 149.334C378.667 81.5867 323.748 26.667 256.001 26.667C188.254 26.667 133.334 81.5867 133.334 149.334C133.334 217.081 188.254 272 256.001 272Z" fill="black"/>
<path fill-rule="evenodd" clip-rule="evenodd" d="M453.334 448C453.334 457.902 449.4 467.398 442.399 474.399C435.398 481.4 425.902 485.334 416 485.334H96.0003C86.0989 485.334 76.603 481.4 69.6017 474.399C62.6003 467.398 58.667 457.902 58.667 448C58.667 404.151 76.086 362.098 107.092 331.092C138.098 300.086 180.151 282.667 224 282.667H288C331.849 282.667 373.903 300.086 404.909 331.092C435.915 362.098 453.334 404.151 453.334 448ZM437.782 463.552C437.504 463.659 437.334 463.787 437.334 464L437.782 463.552Z" fill="black"/>
</svg>
