<svg width="486" height="512" viewBox="0 0 486 512" fill="none" xmlns="http://www.w3.org/2000/svg">
<path d="M446.404 284.524C439.049 276.865 434.945 266.658 434.951 256.043C434.951 245.354 439.007 235.21 446.404 227.476L477.143 195.368C481.915 190.356 484.94 183.937 485.769 177.068C486.598 170.199 485.186 163.246 481.743 157.244L447.941 98.7454C444.452 92.7711 439.132 88.0775 432.768 85.3592C426.404 82.6409 419.333 82.0421 412.601 83.6515L369.577 94.1693C359.251 96.7138 348.34 95.1696 339.126 89.8597C329.81 84.5536 322.927 75.8304 319.936 65.5387L307.534 23.041C305.568 16.4089 301.516 10.5864 295.979 6.43624C290.443 2.28609 283.715 0.0291851 276.794 0H209.2C202.279 0.0274816 195.551 2.28374 190.014 6.43415C184.477 10.5846 180.426 16.4081 178.461 23.041L166.048 65.5921C163.063 75.8743 156.192 84.5925 146.89 89.9024C137.689 95.2063 126.79 96.7395 116.482 94.1799L73.3935 83.6515C66.6623 82.0473 59.5933 82.6486 53.2301 85.3664C46.8668 88.0843 41.5465 92.7747 38.0543 98.7454L4.25198 157.244C0.812686 163.247 -0.597303 170.2 0.231433 177.068C1.06017 183.936 4.08343 190.354 8.85218 195.368L39.6019 227.476C46.9555 235.136 51.0593 245.342 51.0544 255.957C51.0544 266.646 46.9985 276.79 39.6019 284.524L8.86285 316.632C4.09563 321.647 1.07341 328.065 0.244726 334.933C-0.583959 341.8 0.825056 348.752 4.26266 354.756L38.065 413.255C41.5509 419.231 46.8704 423.927 53.2356 426.646C59.6008 429.364 66.6729 429.961 73.4042 428.349L116.428 417.831C126.754 415.282 137.667 416.826 146.879 422.14C156.195 427.444 163.076 436.169 166.059 446.461L178.461 488.959C180.427 495.591 184.479 501.414 190.016 505.564C195.552 509.714 202.28 511.971 209.2 512H276.794C283.716 511.972 290.444 509.716 295.981 505.566C301.518 501.415 305.569 495.592 307.534 488.959L319.957 446.408C322.935 436.125 329.803 427.405 339.105 422.098C348.312 416.811 359.204 415.278 369.513 417.82L412.601 428.349C419.333 429.96 426.404 429.362 432.769 426.643C439.134 423.925 444.453 419.23 447.941 413.255L481.743 354.756C485.181 348.752 486.59 341.8 485.761 334.933C484.932 328.065 481.91 321.647 477.143 316.632L446.404 284.524ZM243.003 373.338C178.163 373.338 125.597 320.803 125.597 256C125.597 191.197 178.163 138.662 243.003 138.662C307.843 138.662 360.409 191.197 360.409 256C360.409 320.803 307.843 373.338 243.003 373.338Z" fill="black"/>
</svg>
