<?xml version="1.0" encoding="UTF-8"?><!DOCTYPE svg PUBLIC "-//W3C//DTD SVG 1.1//EN" "http://www.w3.org/Graphics/SVG/1.1/DTD/svg11.dtd"><svg xmlns="http://www.w3.org/2000/svg" xmlns:xlink="http://www.w3.org/1999/xlink"><defs>
<clipPath id="clip0_110_19">
<rect width="512" height="512" fill="white"/>
</clipPath>

<clipPath id="clip0_110_36">
<rect width="512" height="512" fill="white"/>
</clipPath>
</defs><symbol id="conversion" viewBox="0 0 512 512">
<path d="M160 128C186.51 128 208 106.51 208 80C208 53.4903 186.51 32 160 32C133.49 32 112 53.4903 112 80C112 106.51 133.49 128 160 128Z" />
<path d="M240 176C240 149.536 218.464 128 192 128H128C101.536 128 80 149.536 80 176V192H240V176Z" />
<path d="M352 128C378.51 128 400 106.51 400 80C400 53.4903 378.51 32 352 32C325.49 32 304 53.4903 304 80C304 106.51 325.49 128 352 128Z" />
<path d="M432 176C432 149.536 410.464 128 384 128H320C293.536 128 272 149.536 272 176V192H432V176ZM464 208H48C43.7565 208 39.6869 209.686 36.6863 212.686C33.6857 215.687 32 219.757 32 224C32 279.856 53.76 332.368 93.264 371.872L144 422.624V464C144 468.243 145.686 472.313 148.686 475.314C151.687 478.314 155.757 480 160 480H352C356.243 480 360.313 478.314 363.314 475.314C366.314 472.313 368 468.243 368 464V422.624L418.752 371.872C438.231 352.498 453.674 329.453 464.187 304.071C474.7 278.689 480.075 251.473 480 224C480 219.757 478.314 215.687 475.314 212.686C472.313 209.686 468.243 208 464 208ZM176 272C176 263.513 179.371 255.374 185.373 249.373C191.374 243.371 199.513 240 208 240C216.487 240 224.626 243.371 230.627 249.373C236.629 255.374 240 263.513 240 272C240 280.487 236.629 288.626 230.627 294.627C224.626 300.629 216.487 304 208 304C199.513 304 191.374 300.629 185.373 294.627C179.371 288.626 176 280.487 176 272ZM216 400C214.607 400 213.237 399.636 212.028 398.944C210.818 398.253 209.81 397.257 209.104 396.056C208.398 394.855 208.017 393.49 208 392.097C207.983 390.703 208.331 389.33 209.008 388.112L289.008 244.112C290.092 242.359 291.809 241.09 293.804 240.57C295.798 240.05 297.917 240.318 299.719 241.319C301.521 242.32 302.868 243.977 303.48 245.945C304.093 247.913 303.924 250.041 303.008 251.888L222.992 395.888C222.298 397.137 221.281 398.177 220.049 398.9C218.816 399.623 217.413 400.003 215.984 400H216ZM304 400C295.513 400 287.374 396.629 281.373 390.627C275.371 384.626 272 376.487 272 368C272 359.513 275.371 351.374 281.373 345.373C287.374 339.371 295.513 336 304 336C312.487 336 320.626 339.371 326.627 345.373C332.629 351.374 336 359.513 336 368C336 376.487 332.629 384.626 326.627 390.627C320.626 396.629 312.487 400 304 400Z" />
</symbol><symbol id="diagnostics" viewBox="0 0 512 512">
<path fill-rule="evenodd" clip-rule="evenodd" d="M189.005 81.7602L195.444 70.6089C195.54 70.4386 195.688 70.3037 195.867 70.2242C196.046 70.1448 196.245 70.1249 196.436 70.1675L221.904 75.5804C223.112 75.8374 223.776 75.3541 224.548 74.7253C231.06 69.422 238.663 65.0332 246.53 62.0912C246.918 61.948 247.268 61.7186 247.554 61.4204C247.84 61.1223 248.055 60.7631 248.182 60.3699L249.476 56.3978L249.485 56.4008L256.224 35.6608C256.283 35.474 256.4 35.311 256.558 35.1959C256.717 35.0809 256.908 35.0198 257.104 35.0218H291.203C291.611 35.0218 291.957 35.2727 292.082 35.6608L300.113 60.377C300.495 61.5516 301.242 61.8864 302.174 62.2407C310.05 65.24 317.596 69.6494 324.1 75.0039C324.745 75.5353 325.589 75.737 326.405 75.565L330.472 74.7059L330.474 74.7141L351.871 70.1665C352.062 70.1239 352.261 70.1437 352.44 70.2232C352.619 70.3027 352.767 70.4375 352.863 70.6078L361.39 85.376L369.915 100.116C370.015 100.285 370.057 100.481 370.037 100.676C370.016 100.871 369.934 101.054 369.801 101.198L352.383 120.542C351.623 121.386 351.621 122.185 351.777 123.162C353.111 131.51 353.085 140.302 351.718 148.645C351.583 149.471 351.831 150.294 352.389 150.915L355.153 153.99L355.149 153.993L369.8 170.267C369.933 170.411 370.015 170.593 370.036 170.788C370.056 170.983 370.013 171.178 369.914 171.347L359.293 189.747L359.282 189.74L352.863 200.856C352.767 201.026 352.619 201.161 352.44 201.24C352.261 201.32 352.062 201.339 351.871 201.297L326.411 195.885C325.203 195.628 324.539 196.111 323.767 196.74C319.206 200.444 314.248 203.632 308.984 206.244C308.751 206.36 308.509 206.374 308.264 206.287C308.019 206.2 307.84 206.036 307.732 205.799C304.356 198.406 300.345 191.32 295.747 184.618C295.669 184.509 295.617 184.383 295.594 184.251C295.572 184.119 295.579 183.983 295.616 183.854C295.65 183.724 295.712 183.603 295.799 183.5C295.885 183.397 295.994 183.315 296.116 183.26C329.416 167.577 336.774 124.294 311.183 98.7033C290.731 78.251 257.579 78.2499 237.126 98.7033C228.919 106.91 223.907 117.157 222.277 128.587C222.237 128.864 222.092 129.088 221.855 129.238C221.617 129.387 221.353 129.422 221.086 129.338C213.329 126.913 205.379 125.158 197.323 124.092C197.084 124.061 196.866 123.937 196.717 123.747C196.568 123.557 196.499 123.316 196.525 123.077C196.766 120.856 196.161 120.817 193.152 117.47L193.156 117.467L178.507 101.198C178.374 101.054 178.292 100.871 178.271 100.676C178.251 100.482 178.294 100.286 178.393 100.117L188.995 81.753L189.005 81.7602ZM126.801 267.238C126.332 268.3 125.564 269.203 124.591 269.837C123.618 270.471 122.482 270.808 121.32 270.808H84.8261C84.6986 270.806 84.5721 270.832 84.4552 270.883C84.3383 270.934 84.2337 271.009 84.1482 271.104C84.0602 271.196 83.9928 271.306 83.9505 271.426C83.9081 271.546 83.8917 271.673 83.9024 271.8C87.5274 321.322 128.804 359.745 178.573 359.745C228.344 359.745 269.619 321.322 273.245 271.801C273.256 271.674 273.24 271.546 273.198 271.426C273.155 271.306 273.088 271.196 272.999 271.104C272.914 271.009 272.809 270.934 272.692 270.883C272.576 270.832 272.449 270.807 272.322 270.809H226.627V270.799C225.445 270.799 224.29 270.448 223.307 269.792C222.324 269.136 221.558 268.203 221.105 267.111L205.661 230.047C205.592 229.875 205.471 229.728 205.316 229.626C205.161 229.525 204.978 229.473 204.793 229.478C204.607 229.479 204.426 229.537 204.275 229.644C204.123 229.75 204.008 229.901 203.944 230.075L175.634 304.842C173.754 310.007 166.767 310.154 164.563 305.375L138.467 248.836C138.317 248.51 138.017 248.311 137.658 248.299C137.3 248.288 136.987 248.467 136.816 248.782L126.833 267.172L126.801 267.238ZM118.044 258.345L132.893 230.992C135.246 226.664 141.521 226.932 143.554 231.347L143.563 231.343L168.527 285.431C168.687 285.776 169.018 285.981 169.398 285.967C169.778 285.954 170.096 285.727 170.23 285.37L198.913 209.617C200.831 204.537 207.964 204.476 210.022 209.432L210.026 209.429L230.372 258.26C230.441 258.43 230.559 258.574 230.711 258.676C230.863 258.777 231.042 258.83 231.225 258.828H272.323C272.589 258.828 272.818 258.728 273 258.532C273.089 258.44 273.156 258.331 273.199 258.211C273.241 258.091 273.257 257.963 273.246 257.836C269.621 208.315 228.345 169.892 178.574 169.892C128.804 169.892 87.5274 208.315 83.9024 257.836C83.883 258.102 83.967 258.337 84.1482 258.532C84.3295 258.728 84.5588 258.828 84.8261 258.828H117.232C117.58 258.828 117.878 258.651 118.044 258.345ZM322.684 373.09L313.438 382.336C313.265 382.509 313.03 382.606 312.784 382.606C312.539 382.606 312.304 382.509 312.131 382.336L277.194 347.399C277.031 347.237 276.935 347.019 276.924 346.789C276.914 346.559 276.99 346.334 277.137 346.157C318.832 295.757 315.739 221.272 268.931 174.464C219.031 124.563 138.122 124.562 88.2207 174.464C38.3201 224.364 38.3191 305.274 88.2207 355.174C135.03 401.983 209.513 405.075 259.914 363.381C260.09 363.233 260.316 363.157 260.546 363.168C260.776 363.178 260.993 363.274 261.156 363.437L296.093 398.374C296.266 398.547 296.363 398.783 296.363 399.028C296.363 399.273 296.266 399.508 296.093 399.681L286.847 408.927C286.688 409.096 286.6 409.32 286.6 409.552C286.6 409.784 286.688 410.007 286.847 410.176L353.401 476.73C353.57 476.889 353.793 476.977 354.025 476.977C354.257 476.977 354.481 476.889 354.65 476.73L390.488 440.893C390.817 440.565 390.817 439.974 390.488 439.644L323.933 373.09C323.603 372.762 323.013 372.761 322.684 373.09ZM256.279 187.114C213.363 144.199 143.786 144.199 100.87 187.115C57.9543 230.031 57.9543 299.608 100.87 342.524C143.786 385.44 213.363 385.44 256.28 342.524C299.195 299.607 299.195 230.03 256.279 187.114ZM383.731 219.122C379.362 220.76 373.58 223.914 370.077 226.939L370.055 226.958C369.155 227.789 368.07 228.392 366.889 228.716C365.708 229.04 364.467 229.077 363.269 228.822L349.67 225.931C349.479 225.889 349.28 225.908 349.101 225.988C348.922 226.067 348.773 226.202 348.677 226.373L341.105 239.488C341.005 239.656 340.962 239.852 340.983 240.047C341.003 240.241 341.086 240.424 341.218 240.568L350.511 250.889L350.504 250.895C353.471 254.197 352.212 257.289 351.885 261.281C351.602 264.746 351.7 269.795 352.311 273.148C352.563 274.331 352.531 275.556 352.218 276.725C351.905 277.893 351.32 278.97 350.51 279.868L341.217 290.189C341.085 290.333 341.002 290.516 340.982 290.711C340.961 290.906 341.004 291.102 341.104 291.271L348.689 304.383C348.786 304.553 348.934 304.688 349.113 304.768C349.291 304.847 349.491 304.867 349.682 304.824L363.266 301.937L363.269 301.952C364.393 301.713 365.556 301.73 366.672 302.003C367.788 302.276 368.828 302.796 369.715 303.527C373.315 306.488 378.92 309.949 383.315 311.48L383.343 311.489C384.512 311.854 385.576 312.493 386.447 313.354C387.318 314.215 387.97 315.272 388.348 316.436L392.626 329.604C392.685 329.791 392.802 329.954 392.96 330.069C393.119 330.184 393.31 330.245 393.506 330.243H408.675C408.871 330.245 409.062 330.184 409.221 330.069C409.379 329.954 409.496 329.791 409.555 329.604L413.832 316.441L413.847 316.446C414.202 315.349 414.801 314.348 415.598 313.516C416.396 312.684 417.371 312.043 418.451 311.642C422.808 310.014 428.62 306.838 432.111 303.824L432.132 303.804C433.032 302.973 434.118 302.37 435.299 302.046C436.48 301.722 437.722 301.685 438.92 301.94L452.514 304.828C452.705 304.871 452.904 304.851 453.083 304.772C453.262 304.692 453.41 304.557 453.506 304.387L461.078 291.272C461.177 291.103 461.22 290.907 461.199 290.713C461.179 290.518 461.096 290.335 460.964 290.191L451.669 279.868L451.676 279.862C448.706 276.558 449.968 273.466 450.296 269.473C450.579 266.004 450.481 260.964 449.87 257.61L449.866 257.587C449.618 256.408 449.653 255.186 449.967 254.022C450.281 252.859 450.865 251.785 451.672 250.89L460.965 240.569C461.097 240.425 461.18 240.242 461.2 240.048C461.221 239.853 461.178 239.657 461.079 239.489L453.506 226.374C453.41 226.203 453.261 226.068 453.082 225.989C452.904 225.909 452.704 225.889 452.513 225.932L438.914 228.823L438.911 228.808C437.787 229.047 436.624 229.029 435.508 228.757C434.392 228.484 433.352 227.963 432.465 227.233C428.866 224.271 423.259 220.81 418.865 219.279L418.838 219.27C417.668 218.906 416.604 218.267 415.733 217.406C414.862 216.545 414.21 215.488 413.832 214.323L409.554 201.157C409.495 200.97 409.378 200.807 409.22 200.692C409.061 200.577 408.87 200.516 408.674 200.518H393.505C393.309 200.515 393.118 200.576 392.959 200.692C392.801 200.807 392.684 200.97 392.625 201.157L388.347 214.323L388.333 214.318C387.978 215.414 387.38 216.416 386.583 217.248C385.786 218.08 384.811 218.721 383.731 219.122ZM401.092 235.495C417.594 235.495 430.977 248.877 430.977 265.381C430.977 281.884 417.595 295.266 401.092 295.266C384.589 295.266 371.207 281.885 371.207 265.381C371.207 248.877 384.589 235.495 401.092 235.495Z" />
</symbol><symbol id="download" viewBox="0 0 512 512">
<path d="M256 394.667C247.513 394.667 239.374 391.295 233.373 385.294C227.371 379.293 224 371.154 224 362.667V64C224 55.5131 227.371 47.3737 233.373 41.3726C239.374 35.3714 247.513 32 256 32C264.487 32 272.626 35.3714 278.627 41.3726C284.629 47.3737 288 55.5131 288 64V362.667C288 371.154 284.629 379.293 278.627 385.294C272.626 391.295 264.487 394.667 256 394.667Z" />
<path d="M256 394.667C248.211 394.896 240.613 392.236 234.667 387.2L106.667 280.533C101.575 276.273 97.9335 270.534 96.2483 264.113C94.563 257.691 94.9169 250.904 97.2609 244.692C99.605 238.48 103.823 233.152 109.331 229.444C114.838 225.737 121.363 223.834 128 224C135.789 223.771 143.387 226.431 149.333 231.467L256 321.067L362.667 231.467C365.879 228.756 369.597 226.709 373.605 225.444C377.614 224.179 381.833 223.722 386.019 224.099C390.206 224.476 394.275 225.68 397.994 227.64C401.712 229.601 405.004 232.279 407.68 235.52C410.492 238.624 412.663 242.254 414.067 246.2C415.472 250.147 416.083 254.331 415.865 258.515C415.647 262.698 414.604 266.796 412.797 270.575C410.989 274.354 408.453 277.738 405.333 280.533L277.333 387.2C271.387 392.236 263.789 394.896 256 394.667ZM106.667 480C98.1798 480 90.0404 476.629 84.0393 470.627C78.0381 464.626 74.6667 456.487 74.6667 448C74.6667 439.513 78.0381 431.374 84.0393 425.373C90.0404 419.371 98.1798 416 106.667 416H405.333C413.82 416 421.96 419.371 427.961 425.373C433.962 431.374 437.333 439.513 437.333 448C437.333 456.487 433.962 464.626 427.961 470.627C421.96 476.629 413.82 480 405.333 480H106.667Z" />
</symbol><symbol id="message" viewBox="0 0 512 512">
<g clip-path="url(#clip0_110_19)">
<path d="M286.999 120.999H76C34.647 120.999 0 154.646 0 195.999V345.998C0 382.224 26.811 412.517 61 419.489V496.998C60.9978 499.965 61.8765 502.866 63.5247 505.333C65.1729 507.8 67.5163 509.722 70.258 510.855C75.79 513.164 82.275 511.933 86.606 507.603L172.21 420.999H286.998C328.351 420.999 361.998 387.352 361.998 345.999V195.999C361.999 154.646 328.352 120.999 286.999 120.999ZM91 300.998C74.462 300.998 61 287.536 61 270.998C61 254.46 74.462 240.998 91 240.998C107.538 240.998 121 254.46 121 270.998C121 287.536 107.538 300.998 91 300.998ZM181 300.998C164.462 300.998 151 287.536 151 270.998C151 254.46 164.462 240.998 181 240.998C197.538 240.998 211 254.46 211 270.998C211 287.536 197.538 300.998 181 300.998ZM271.999 300.998C255.461 300.998 241.999 287.536 241.999 270.998C241.999 254.46 255.461 240.998 271.999 240.998C288.537 240.998 301.999 254.46 301.999 270.998C301.999 287.536 288.537 300.998 271.999 300.998Z" />
<path d="M436.998 0H196C154.647 0 121 33.647 121 75V91H286.999C344.89 91 391.998 138.109 391.998 195.999V345.998C391.998 347.93 391.533 349.733 391.429 351.639L426.393 386.603C430.723 390.933 437.209 392.164 442.741 389.855C445.483 388.721 447.826 386.799 449.474 384.332C451.123 381.865 452.001 378.965 451.999 375.998V299.489C486.188 292.516 511.999 262.223 511.999 225.998V75C511.998 33.647 478.351 0 436.998 0Z" />
</g>

</symbol><symbol id="otdels" viewBox="0 0 512 512">
<path d="M308.97 114.515C332.643 129.358 349.244 154.476 352.266 183.631C362.193 188.301 373.026 190.727 383.997 190.737C425.472 190.737 459.088 157.121 459.088 115.652C459.088 74.1773 425.472 40.5615 383.997 40.5615C342.918 40.5743 309.596 73.5895 308.97 114.515ZM259.776 268.262C301.251 268.262 334.867 234.64 334.867 193.171C334.867 151.703 301.245 118.087 259.776 118.087C218.308 118.087 184.673 151.709 184.673 193.178C184.673 234.646 218.308 268.262 259.776 268.262ZM291.629 273.38H227.911C174.897 273.38 131.767 316.516 131.767 369.531V447.452L131.965 448.673L137.332 450.353C187.925 466.161 231.879 471.433 268.057 471.433C338.72 471.433 379.677 451.286 382.201 450.002L387.217 447.465H387.754V369.531C387.773 316.516 344.643 273.38 291.629 273.38ZM415.862 195.861H352.637C351.994 220.274 341.728 243.444 324.075 260.32C371.198 274.332 405.677 318.031 405.677 369.646V393.658C468.103 391.371 504.077 373.678 506.447 372.489L511.463 369.946H512V291.999C512 238.991 468.87 195.861 415.862 195.861ZM128.016 190.749C142.706 190.749 156.373 186.462 167.951 179.159C171.584 155.661 184.085 134.449 202.883 119.889C202.96 118.483 203.094 117.09 203.094 115.671C203.094 74.1965 169.472 40.5807 128.016 40.5807C86.5346 40.5807 52.9252 74.1965 52.9252 115.671C52.9252 157.127 86.5346 190.749 128.016 190.749ZM195.452 260.32C177.897 243.524 167.646 220.503 166.91 196.219C164.565 196.046 162.245 195.861 159.855 195.861H96.1446C43.1299 195.861 0 238.991 0 291.999V369.934L0.198078 371.135L5.56536 372.828C46.1522 385.499 82.3749 391.339 113.837 393.179V369.646C113.85 318.031 148.316 274.345 195.452 260.32Z" />
</symbol><symbol id="site" viewBox="0 0 512 512">
<g clip-path="url(#clip0_110_36)">
<path fill-rule="evenodd" clip-rule="evenodd" d="M489.965 152.138H376.069C370.397 116.456 361.77 83.587 350.501 55.421C343.508 37.919 335.647 22.752 327.085 10.06C399.928 31.142 459.496 83.787 489.965 152.138ZM327.085 501.956C335.647 489.248 343.509 474.091 350.501 456.584C361.77 428.412 370.397 395.544 376.069 359.861H489.965C459.496 428.229 399.928 480.869 327.085 501.956ZM22.03 359.862H135.931C141.598 395.544 150.23 428.413 161.493 456.585C168.502 474.092 176.353 489.248 184.915 501.957C112.067 480.869 52.504 428.229 22.03 359.862ZM184.915 10.06C176.353 22.752 168.503 37.919 161.493 55.421C150.229 83.587 141.598 116.456 135.931 152.138H22.03C52.504 83.787 112.067 31.142 184.915 10.06ZM256 -0.000976562C235.371 -0.000976562 212.731 25.793 195.45 68.997C185.756 93.249 178.18 121.432 172.961 152.138H339.038C333.814 121.432 326.249 93.249 316.549 68.997C299.269 25.794 276.629 -0.000976562 256 -0.000976562ZM-0.00101565 256C-0.00101565 232.723 3.14198 210.159 8.99198 188.711H131.245C129.099 210.515 127.988 233.063 127.988 256C127.988 278.936 129.099 301.485 131.245 323.294H8.99298C3.01427 301.363 -0.0104375 278.732 -0.00101565 256ZM167.985 323.295C165.726 301.615 164.556 279.045 164.556 256.001C164.556 232.973 165.726 210.403 167.985 188.712H344.01C346.274 210.403 347.439 232.973 347.439 256.001C347.439 279.045 346.274 301.615 344.01 323.295H167.985ZM256 512.001C276.629 512.001 299.269 486.207 316.549 443.008C326.249 418.767 333.814 390.573 339.038 359.862H172.961C178.18 390.573 185.756 418.767 195.45 443.008C212.731 486.207 235.371 512.001 256 512.001ZM512.001 256C512.001 279.281 508.858 301.841 503.007 323.294H380.755C382.901 301.484 384.012 278.936 384.012 256C384.012 233.063 382.901 210.515 380.755 188.711H503.008C508.986 210.641 512.01 233.27 512.001 256Z" />
</g>

</symbol><symbol id="client" viewBox="0 0 512 512">
<path d="M256 213.333C314.91 213.333 362.667 165.577 362.667 106.667C362.667 47.7563 314.91 0 256 0C197.09 0 149.333 47.7563 149.333 106.667C149.333 165.577 197.09 213.333 256 213.333Z" />
<path d="M227.376 430.315C208.933 393.413 219.909 343.264 252.443 316.149C267.505 303.727 286.444 296.975 305.968 297.067C325.998 297.551 345.55 303.287 362.667 313.701C375.805 305.921 390.272 300.643 405.333 298.133V277.333C405.315 260.365 398.566 244.097 386.568 232.099C374.57 220.1 358.302 213.352 341.333 213.333H170.667C153.698 213.352 137.43 220.1 125.432 232.099C113.434 244.097 106.685 260.365 106.667 277.333V448C106.667 453.658 108.914 459.084 112.915 463.085C116.916 467.086 122.342 469.333 128 469.333H258.667C246.035 458.257 235.444 445.051 227.376 430.315Z" />
<path d="M459.243 332.528C447.157 322.432 414.171 303.637 362.667 338.875C311.152 303.632 278.171 322.443 266.091 332.528C241.285 353.227 232.491 392.795 246.459 420.773C268.859 465.573 354.24 509.024 357.861 510.853C359.35 511.604 360.994 511.994 362.661 511.994C364.329 511.994 365.973 511.604 367.461 510.853C371.083 509.024 456.464 465.568 478.864 420.773C492.853 392.811 484.048 353.227 459.243 332.528ZM426.667 405.333C422.447 405.333 418.323 404.082 414.815 401.738C411.306 399.394 408.572 396.062 406.957 392.164C405.343 388.266 404.92 383.976 405.743 379.838C406.566 375.7 408.598 371.898 411.582 368.915C414.565 365.931 418.366 363.9 422.505 363.077C426.643 362.253 430.932 362.676 434.831 364.291C438.729 365.905 442.061 368.64 444.405 372.148C446.749 375.656 448 379.781 448 384C448 389.658 445.752 395.084 441.752 399.085C437.751 403.086 432.325 405.333 426.667 405.333Z" />
</symbol><symbol id="control" viewBox="0 0 512 512">
<path d="M80 48H136C138.122 48 140.157 48.8429 141.657 50.3431C143.157 51.8434 144 53.8783 144 56V72C144 74.1217 143.157 76.1566 141.657 77.6569C140.157 79.1571 138.122 80 136 80H80V136C80 138.122 79.1571 140.157 77.6569 141.657C76.1566 143.157 74.1217 144 72 144H56C53.8783 144 51.8434 143.157 50.3431 141.657C48.8429 140.157 48 138.122 48 136V80C48 71.5131 51.3714 63.3737 57.3726 57.3726C63.3737 51.3714 71.5131 48 80 48ZM456 144H440C437.878 144 435.843 143.157 434.343 141.657C432.843 140.157 432 138.122 432 136V80H376C373.878 80 371.843 79.1571 370.343 77.6569C368.843 76.1566 368 74.1217 368 72V56C368 53.8783 368.843 51.8434 370.343 50.3431C371.843 48.8429 373.878 48 376 48H432C440.487 48 448.626 51.3714 454.627 57.3726C460.629 63.3737 464 71.5131 464 80V136C464 138.122 463.157 140.157 461.657 141.657C460.157 143.157 458.122 144 456 144ZM56 368H72C74.1217 368 76.1566 368.843 77.6569 370.343C79.1571 371.843 80 373.878 80 376V432H136C138.122 432 140.157 432.843 141.657 434.343C143.157 435.843 144 437.878 144 440V456C144 458.122 143.157 460.157 141.657 461.657C140.157 463.157 138.122 464 136 464H80C71.5131 464 63.3737 460.629 57.3726 454.627C51.3714 448.626 48 440.487 48 432V376C48 373.878 48.8429 371.843 50.3431 370.343C51.8434 368.843 53.8783 368 56 368ZM432 464H376C373.878 464 371.843 463.157 370.343 461.657C368.843 460.157 368 458.122 368 456V440C368 437.878 368.843 435.843 370.343 434.343C371.843 432.843 373.878 432 376 432H432V376C432 373.878 432.843 371.843 434.343 370.343C435.843 368.843 437.878 368 440 368H456C458.122 368 460.157 368.843 461.657 370.343C463.157 371.843 464 373.878 464 376V432C464 440.487 460.629 448.626 454.627 454.627C448.626 460.629 440.487 464 432 464ZM256 112C100.928 112 32 256 32 256C32 256 100.928 400 256 400C411.072 400 480 256 480 256C480 256 411.072 112 256 112ZM256 352C230.539 352 206.121 341.886 188.118 323.882C170.114 305.879 160 281.461 160 256C160 230.539 170.114 206.121 188.118 188.118C206.121 170.114 230.539 160 256 160C281.461 160 305.879 170.114 323.882 188.118C341.886 206.121 352 230.539 352 256C352 281.461 341.886 305.879 323.882 323.882C305.879 341.886 281.461 352 256 352Z" />
<path d="M316.944 237.456C318.752 243.36 320 249.504 320 256C320 268.658 316.246 281.032 309.214 291.556C302.182 302.081 292.186 310.284 280.492 315.128C268.797 319.972 255.929 321.24 243.514 318.77C231.099 316.301 219.696 310.205 210.745 301.255C201.795 292.304 195.699 280.901 193.23 268.486C190.76 256.071 192.028 243.203 196.872 231.508C201.716 219.814 209.919 209.818 220.444 202.786C230.968 195.754 243.342 192 256 192C262.496 192 268.64 193.248 274.544 195.056C267.907 198.094 262.511 203.315 259.256 209.849C256.002 216.383 255.085 223.835 256.659 230.962C258.233 238.09 262.202 244.463 267.905 249.02C273.608 253.576 280.701 256.039 288 256C300.848 256 311.856 248.384 316.944 237.456Z" />
</symbol></svg>