<?xml version="1.0" encoding="UTF-8"?><!DOCTYPE svg PUBLIC "-//W3C//DTD SVG 1.1//EN" "http://www.w3.org/Graphics/SVG/1.1/DTD/svg11.dtd"><svg xmlns="http://www.w3.org/2000/svg" xmlns:xlink="http://www.w3.org/1999/xlink"><defs>
<clipPath id="clip0_678_1300">
<rect width="512" height="512" fill="white"/>
</clipPath>

<clipPath id="clip0_678_1325">
<rect width="512" height="512" fill="white"/>
</clipPath>

<clipPath id="clip0_678_1304">
<rect width="512" height="512" fill="white"/>
</clipPath>

<clipPath id="clip0_678_1308">
<rect width="512" height="512" fill="white"/>
</clipPath>

<clipPath id="clip0_678_1294">
<rect width="512" height="512" fill="white"/>
</clipPath>
</defs><symbol id="docs" viewBox="0 0 512 512">
<path d="M392.96 19.6924H119.04C81.2304 19.6924 50.3135 50.4124 50.3135 88.4185V423.582C50.3654 441.793 57.6229 459.244 70.5003 472.121C83.3777 484.998 100.828 492.256 119.04 492.308H392.96C411.171 492.256 428.622 484.998 441.499 472.121C454.376 459.244 461.634 441.793 461.686 423.582V88.4185C461.686 50.4124 430.769 19.6924 392.96 19.6924ZM254.936 420.214H161.043C155.403 420.214 149.993 417.974 146.005 413.985C142.016 409.997 139.776 404.587 139.776 398.947C139.776 393.306 142.016 387.896 146.005 383.908C149.993 379.92 155.403 377.679 161.043 377.679H254.936C260.577 377.679 265.986 379.92 269.975 383.908C273.963 387.896 276.204 393.306 276.204 398.947C276.204 404.587 273.963 409.997 269.975 413.985C265.986 417.974 260.577 420.214 254.936 420.214ZM350.917 318.622H161.043C155.403 318.622 149.993 316.381 146.005 312.392C142.016 308.404 139.776 302.994 139.776 297.354C139.776 291.713 142.016 286.304 146.005 282.315C149.993 278.327 155.403 276.086 161.043 276.086H350.917C356.557 276.086 361.967 278.327 365.955 282.315C369.944 286.304 372.184 291.713 372.184 297.354C372.184 302.994 369.944 308.404 365.955 312.392C361.967 316.381 356.557 318.622 350.917 318.622ZM379.155 127.134L310.921 203.146C303.97 210.905 292.411 212.441 283.667 206.887L217.501 164.687L163.997 220.495C160.096 224.569 154.736 226.926 149.097 227.048C143.457 227.169 138.001 225.046 133.927 221.145C129.853 217.243 127.496 211.883 127.374 206.244C127.252 200.605 129.376 195.148 133.277 191.075L198.853 122.663C205.902 115.338 217.107 113.999 225.634 119.434L291.328 161.319L347.51 98.6979C349.363 96.5754 351.62 94.8422 354.149 93.5992C356.677 92.3563 359.428 91.6282 362.241 91.4573C365.053 91.2865 367.872 91.6763 370.532 92.604C373.193 93.5317 375.643 94.979 377.739 96.8616C379.836 98.7442 381.538 101.025 382.745 103.571C383.953 106.116 384.643 108.877 384.775 111.692C384.906 114.506 384.477 117.319 383.513 119.967C382.548 122.614 381.067 125.063 379.155 127.134Z" />
</symbol><symbol id="graphic" viewBox="0 0 459 458">
    <path d="M366.09 412.23C420.36 371.54 456.04 307.37 457.92 234.92H240.61L366.09 412.23ZM223 228.92C223 230.21 223.41 231.4 224.11 232.38L224.1 232.39L356.31 419.17C319.88 443.63 276.08 457.92 229 457.92C102.73 457.92 0 355.19 0 228.92C0 104.65 99.49 3.19 223 0V228.92ZM279.09 222.92V136.25H235V222.92H279.09ZM368.54 222.92V79.61H324.46V222.92H368.54ZM413.91 222.92H458.01V18.79H413.91V222.92Z"/>
</symbol><symbol id="home" viewBox="0 0 512 512">
<g clip-path="url(#clip0_678_1300)">
<path d="M498.195 222.695L498.16 222.66L289.305 13.813C280.402 4.905 268.566 0 255.977 0C243.387 0 231.551 4.902 222.645 13.809L13.8983 222.55C13.8283 222.62 13.7583 222.694 13.6883 222.765C-4.59371 241.151 -4.56171 270.983 13.7783 289.323C22.1563 297.706 33.2233 302.561 45.0553 303.069C45.5353 303.116 46.0203 303.139 46.5083 303.139H54.8323V456.839C54.8323 487.254 79.5783 512 110 512H191.71C199.992 512 206.71 505.285 206.71 497V376.5C206.71 362.621 218 351.332 231.879 351.332H280.074C293.954 351.332 305.242 362.622 305.242 376.5V497C305.242 505.285 311.957 512 320.242 512H401.953C432.375 512 457.121 487.254 457.121 456.84V303.14H464.84C477.426 303.14 489.262 298.238 498.172 289.332C516.532 270.961 516.539 241.078 498.195 222.695Z" />
</g>

</symbol><symbol id="logout" viewBox="0 0 512 512">
<g clip-path="url(#clip0_678_1325)">
<path d="M510.371 226.513C509.283 223.91 507.726 221.542 505.742 219.558L441.763 155.579C433.422 147.259 419.939 147.259 411.598 155.579C403.257 163.92 403.257 177.424 411.598 185.744L439.182 213.328H320.013C308.216 213.328 298.68 222.885 298.68 234.661C298.68 246.437 308.216 255.994 320.013 255.994H439.181L411.597 283.578C403.256 291.919 403.256 305.423 411.597 313.743C415.757 317.924 421.218 319.994 426.68 319.994C432.142 319.994 437.603 317.925 441.763 313.743L505.742 249.764C507.726 247.801 509.283 245.433 510.371 242.809C512.525 237.59 512.525 231.731 510.371 226.513Z" />
<path d="M362.68 298.667C350.883 298.667 341.347 308.224 341.347 320V426.667H256.014V85.333C256.014 75.925 249.827 67.605 240.803 64.896L166.712 42.667H341.347V149.334C341.347 161.11 350.883 170.667 362.68 170.667C374.477 170.667 384.013 161.11 384.013 149.334V21.334C384.013 9.557 374.477 0 362.68 0H21.3467C20.5787 0 19.8957 0.32 19.1497 0.405C18.1467 0.512 17.2297 0.682 16.2697 0.917C14.0888 1.47028 12.0084 2.36284 10.1047 3.562C9.63567 3.861 9.05967 3.882 8.61167 4.223C8.43967 4.352 8.37567 4.587 8.20467 4.715C5.87967 6.549 3.93867 8.789 2.53067 11.456C2.23167 12.032 2.16767 12.651 1.93367 13.248C1.25067 14.869 0.504672 16.448 0.248672 18.24C0.141672 18.88 0.333672 19.477 0.312672 20.096C0.291672 20.523 0.0136719 20.907 0.0136719 21.333V448C0.0136719 458.176 7.20267 466.923 17.1657 468.907L230.499 511.574C231.886 511.873 233.294 512.001 234.68 512.001C239.613 512.001 244.393 510.289 248.205 507.158C250.644 505.157 252.609 502.64 253.959 499.788C255.309 496.937 256.01 493.822 256.013 490.667V469.334H362.68C374.477 469.334 384.013 459.777 384.013 448.001V320C384.013 308.224 374.477 298.667 362.68 298.667Z" />
</g>

</symbol><symbol id="profile" viewBox="0 0 512 512">
<path d="M256.001 272C323.748 272 378.667 217.081 378.667 149.334C378.667 81.5867 323.748 26.667 256.001 26.667C188.254 26.667 133.334 81.5867 133.334 149.334C133.334 217.081 188.254 272 256.001 272Z" />
<path fill-rule="evenodd" clip-rule="evenodd" d="M453.334 448C453.334 457.902 449.4 467.398 442.399 474.399C435.398 481.4 425.902 485.334 416 485.334H96.0003C86.0989 485.334 76.603 481.4 69.6017 474.399C62.6003 467.398 58.667 457.902 58.667 448C58.667 404.151 76.086 362.098 107.092 331.092C138.098 300.086 180.151 282.667 224 282.667H288C331.849 282.667 373.903 300.086 404.909 331.092C435.915 362.098 453.334 404.151 453.334 448ZM437.782 463.552C437.504 463.659 437.334 463.787 437.334 464L437.782 463.552Z" />
</symbol><symbol id="settings" viewBox="0 0 486 512">
<path d="M446.404 284.524C439.049 276.865 434.945 266.658 434.951 256.043C434.951 245.354 439.007 235.21 446.404 227.476L477.143 195.368C481.915 190.356 484.94 183.937 485.769 177.068C486.598 170.199 485.186 163.246 481.743 157.244L447.941 98.7454C444.452 92.7711 439.132 88.0775 432.768 85.3592C426.404 82.6409 419.333 82.0421 412.601 83.6515L369.577 94.1693C359.251 96.7138 348.34 95.1696 339.126 89.8597C329.81 84.5536 322.927 75.8304 319.936 65.5387L307.534 23.041C305.568 16.4089 301.516 10.5864 295.979 6.43624C290.443 2.28609 283.715 0.0291851 276.794 0H209.2C202.279 0.0274816 195.551 2.28374 190.014 6.43415C184.477 10.5846 180.426 16.4081 178.461 23.041L166.048 65.5921C163.063 75.8743 156.192 84.5925 146.89 89.9024C137.689 95.2063 126.79 96.7395 116.482 94.1799L73.3935 83.6515C66.6623 82.0473 59.5933 82.6486 53.2301 85.3664C46.8668 88.0843 41.5465 92.7747 38.0543 98.7454L4.25198 157.244C0.812686 163.247 -0.597303 170.2 0.231433 177.068C1.06017 183.936 4.08343 190.354 8.85218 195.368L39.6019 227.476C46.9555 235.136 51.0593 245.342 51.0544 255.957C51.0544 266.646 46.9985 276.79 39.6019 284.524L8.86285 316.632C4.09563 321.647 1.07341 328.065 0.244726 334.933C-0.583959 341.8 0.825056 348.752 4.26266 354.756L38.065 413.255C41.5509 419.231 46.8704 423.927 53.2356 426.646C59.6008 429.364 66.6729 429.961 73.4042 428.349L116.428 417.831C126.754 415.282 137.667 416.826 146.879 422.14C156.195 427.444 163.076 436.169 166.059 446.461L178.461 488.959C180.427 495.591 184.479 501.414 190.016 505.564C195.552 509.714 202.28 511.971 209.2 512H276.794C283.716 511.972 290.444 509.716 295.981 505.566C301.518 501.415 305.569 495.592 307.534 488.959L319.957 446.408C322.935 436.125 329.803 427.405 339.105 422.098C348.312 416.811 359.204 415.278 369.513 417.82L412.601 428.349C419.333 429.96 426.404 429.362 432.769 426.643C439.134 423.925 444.453 419.23 447.941 413.255L481.743 354.756C485.181 348.752 486.59 341.8 485.761 334.933C484.932 328.065 481.91 321.647 477.143 316.632L446.404 284.524ZM243.003 373.338C178.163 373.338 125.597 320.803 125.597 256C125.597 191.197 178.163 138.662 243.003 138.662C307.843 138.662 360.409 191.197 360.409 256C360.409 320.803 307.843 373.338 243.003 373.338Z" />
</symbol><symbol id="star" viewBox="0 0 512 512">
<g clip-path="url(#clip0_678_1304)">
<path d="M295.607 227.218L355.2 236.325L311.497 281.125C309.494 283.173 308 285.663 307.137 288.395C306.273 291.126 306.063 294.023 306.523 296.85L316.654 358.912L264.832 330.295C262.131 328.793 259.091 328.005 256 328.005C252.909 328.005 249.869 328.793 247.168 330.295L195.346 358.912L205.477 296.85C205.94 294.024 205.733 291.129 204.872 288.397C204.011 285.666 202.521 283.175 200.521 281.125L156.818 236.325L216.393 227.218C219.361 226.764 222.172 225.585 224.577 223.786C226.981 221.987 228.906 219.624 230.181 216.905L256 161.902L281.819 216.905C283.094 219.624 285.019 221.987 287.423 223.786C289.828 225.585 292.639 226.764 295.607 227.218ZM512 256C512 397.166 397.166 512 256 512C114.834 512 0 397.166 0 256C0 114.834 114.834 0 256 0C397.166 0 512 114.834 512 256ZM410.478 217.819C409.408 214.636 407.482 211.808 404.911 209.647C402.34 207.486 399.224 206.075 395.904 205.568L310.784 192.549L272.567 111.086C271.092 107.939 268.752 105.278 265.819 103.414C262.887 101.55 259.484 100.559 256.009 100.559C252.534 100.559 249.131 101.55 246.199 103.414C243.267 105.278 240.926 107.939 239.451 111.086L201.216 192.549L116.096 205.55C112.772 206.056 109.652 207.47 107.079 209.634C104.506 211.799 102.58 214.631 101.512 217.82C100.445 221.008 100.277 224.429 101.027 227.706C101.777 230.984 103.416 233.991 105.765 236.398L167.899 300.069L153.179 390.199C152.644 393.58 153.067 397.044 154.4 400.197C155.733 403.351 157.923 406.067 160.722 408.039C163.52 410.012 166.815 411.16 170.233 411.355C173.651 411.55 177.055 410.784 180.059 409.143L256 367.177L331.922 409.143C334.924 410.812 338.337 411.598 341.767 411.41C345.196 411.223 348.503 410.069 351.305 408.082C357.01 404.059 359.954 397.111 358.821 390.199L344.101 300.05L406.235 236.398C408.582 233.99 410.22 230.982 410.968 227.705C411.716 224.427 411.547 221.007 410.478 217.819Z" />
</g>

</symbol><symbol id="switch" viewBox="0 0 512 512">
<g clip-path="url(#clip0_678_1308)">
<path d="M256 0C213.246 0 0 3.605 0 74.668V145.449C0 164.5 8.406 182.422 23.04 194.625L192 335.34V490.668C192.001 494.632 193.105 498.517 195.189 501.889C197.272 505.261 200.253 507.987 203.797 509.762C206.761 511.231 210.024 511.997 213.332 512C217.948 512.002 222.44 510.505 226.132 507.734L302.91 450.156C313.602 442.133 320 429.375 320 416V335.34L488.96 194.625C503.595 182.422 512 164.5 512 145.449V74.668C512 3.605 298.754 0 256 0ZM256 42.668C375.23 42.668 446.977 62.016 465.984 74.668C446.977 87.316 375.23 106.668 256 106.668C136.77 106.668 65.023 87.316 46.016 74.668C65.023 62.016 136.77 42.668 256 42.668Z" />
</g>

</symbol><symbol id="calendar" viewBox="0 0 512 512">
<path d="M480 86.8797V152H32V86.8797C32.1645 74.303 37.3101 62.3048 46.3084 53.5165C55.3066 44.7283 67.4229 39.8673 80 39.9997H112V71.9997C112 84.7301 117.057 96.9391 126.059 105.941C135.061 114.943 147.27 120 160 120C172.73 120 184.939 114.943 193.941 105.941C202.943 96.9391 208 84.7301 208 71.9997V39.9997H304V71.9997C304 84.7301 309.057 96.9391 318.059 105.941C327.061 114.943 339.27 120 352 120C364.73 120 376.939 114.943 385.941 105.941C394.943 96.9391 400 84.7301 400 71.9997V39.9997H432C444.577 39.8673 456.693 44.7283 465.692 53.5165C474.69 62.3048 479.835 74.303 480 86.8797ZM32 184V441.12C32.1645 453.696 37.3101 465.695 46.3084 474.483C55.3066 483.271 67.4229 488.132 80 488H432C444.577 488.132 456.693 483.271 465.692 474.483C474.69 465.695 479.835 453.696 480 441.12V184H32ZM176 408C175.987 412.239 174.298 416.302 171.3 419.299C168.302 422.297 164.24 423.987 160 424H128C123.76 423.987 119.698 422.297 116.7 419.299C113.702 416.302 112.013 412.239 112 408V376C112.013 371.76 113.702 367.698 116.7 364.7C119.698 361.702 123.76 360.012 128 360H160C164.24 360.012 168.302 361.702 171.3 364.7C174.298 367.698 175.987 371.76 176 376V408ZM176 296C175.987 300.239 174.298 304.302 171.3 307.299C168.302 310.297 164.24 311.987 160 312H128C123.76 311.987 119.698 310.297 116.7 307.299C113.702 304.302 112.013 300.239 112 296V264C112.013 259.76 113.702 255.698 116.7 252.7C119.698 249.702 123.76 248.012 128 248H160C164.24 248.012 168.302 249.702 171.3 252.7C174.298 255.698 175.987 259.76 176 264V296ZM288 408C287.987 412.239 286.298 416.302 283.3 419.299C280.302 422.297 276.24 423.987 272 424H240C235.76 423.987 231.698 422.297 228.7 419.299C225.702 416.302 224.013 412.239 224 408V376C224.013 371.76 225.702 367.698 228.7 364.7C231.698 361.702 235.76 360.012 240 360H272C276.24 360.012 280.302 361.702 283.3 364.7C286.298 367.698 287.987 371.76 288 376V408ZM288 296C287.987 300.239 286.298 304.302 283.3 307.299C280.302 310.297 276.24 311.987 272 312H240C235.76 311.987 231.698 310.297 228.7 307.299C225.702 304.302 224.013 300.239 224 296V264C224.013 259.76 225.702 255.698 228.7 252.7C231.698 249.702 235.76 248.012 240 248H272C276.24 248.012 280.302 249.702 283.3 252.7C286.298 255.698 287.987 259.76 288 264V296ZM400 296C399.987 300.239 398.298 304.302 395.3 307.299C392.302 310.297 388.24 311.987 384 312H352C347.76 311.987 343.698 310.297 340.7 307.299C337.702 304.302 336.013 300.239 336 296V264C336.013 259.76 337.702 255.698 340.7 252.7C343.698 249.702 347.76 248.012 352 248H384C388.24 248.012 392.302 249.702 395.3 252.7C398.298 255.698 399.987 259.76 400 264V296Z" />
<path d="M176 40V72C176 76.2435 174.314 80.3131 171.314 83.3137C168.313 86.3143 164.243 88 160 88C155.757 88 151.687 86.3143 148.686 83.3137C145.686 80.3131 144 76.2435 144 72V40C144 35.7565 145.686 31.6869 148.686 28.6863C151.687 25.6857 155.757 24 160 24C164.243 24 168.313 25.6857 171.314 28.6863C174.314 31.6869 176 35.7565 176 40ZM368 40V72C368 76.2435 366.314 80.3131 363.314 83.3137C360.313 86.3143 356.243 88 352 88C347.757 88 343.687 86.3143 340.686 83.3137C337.686 80.3131 336 76.2435 336 72V40C336 35.7565 337.686 31.6869 340.686 28.6863C343.687 25.6857 347.757 24 352 24C356.243 24 360.313 25.6857 363.314 28.6863C366.314 31.6869 368 35.7565 368 40Z" />
</symbol><symbol id="client" viewBox="0 0 512 512">
<g clip-path="url(#clip0_678_1294)">
<path d="M256.001 340.464C336.471 340.464 401.704 277.824 401.704 200.554C401.704 123.283 336.471 60.6436 256.001 60.6436C175.532 60.6436 110.299 123.283 110.299 200.554C110.299 277.824 175.532 340.464 256.001 340.464Z" />
<path d="M342.833 333.143C317.674 348.395 287.9 357.233 256.001 357.233C221.816 357.233 190.066 347.083 163.811 329.746C154.784 332.29 142.13 338.367 127.892 347.137C148.152 364.825 173.162 377.506 197.211 384.381C206.306 372.918 220.57 365.921 235.999 365.921H277.52C304.424 365.921 326.308 386.939 326.308 412.775C326.308 438.61 304.424 459.628 277.52 459.628H235.999C216.74 459.628 199.553 448.76 191.69 432.398C156.665 423.967 123.088 407.009 96.4675 384.192C93.4631 381.607 90.5669 378.968 87.7654 376.275C48.9917 408.782 11.5173 453.903 7.28125 499.051H502.61C480.794 422.803 420.583 360.115 342.833 333.143Z" />
<path d="M478.439 140.56H455.31C428.23 57.3824 347.516 0 256.001 0C164.487 0 83.7732 57.3824 56.6925 140.56H33.5636C7.75509 140.56 -13.249 160.725 -13.249 185.505V245.892C-13.249 270.672 7.75509 290.837 33.5636 290.837H52.4024C59.4669 321.977 77.656 350.763 105.427 374.569C132.318 397.617 166.396 414.127 201.813 421.409C205.805 435.957 219.623 446.73 236.012 446.73H277.533C297.035 446.73 312.897 431.505 312.897 412.774C312.897 394.044 297.035 378.818 277.533 378.818H236.012C221.491 378.818 208.986 387.277 203.545 399.335C144.891 386.14 82.8664 341.506 73.2035 278.277C73.1899 278.223 73.1764 278.169 73.1764 278.115C73.1493 277.966 73.1223 277.804 73.0817 277.655C73.0411 277.452 72.9869 277.235 72.9328 277.032L72.8922 276.843C65.5164 252.103 72.9057 180.281 76.4921 153.674C98.3894 76.0587 172.107 21.8973 256.001 21.8973C339.991 21.8973 413.776 76.1534 435.579 153.904C435.524 154.229 435.497 154.567 435.47 154.905C430.964 236.851 424.102 277.682 424.034 278.074C423.493 281.255 424.427 284.489 426.592 286.952C428.758 289.402 431.938 290.823 435.294 290.823H478.426C504.234 290.823 525.238 270.658 525.238 245.878V185.491C525.252 160.725 504.248 140.56 478.439 140.56Z" />
</g>

</symbol></svg>