<svg width="512" height="512" viewBox="0 0 512 512" fill="none" xmlns="http://www.w3.org/2000/svg">
<g clip-path="url(#clip0_678_1304)">
<path d="M295.607 227.218L355.2 236.325L311.497 281.125C309.494 283.173 308 285.663 307.137 288.395C306.273 291.126 306.063 294.023 306.523 296.85L316.654 358.912L264.832 330.295C262.131 328.793 259.091 328.005 256 328.005C252.909 328.005 249.869 328.793 247.168 330.295L195.346 358.912L205.477 296.85C205.94 294.024 205.733 291.129 204.872 288.397C204.011 285.666 202.521 283.175 200.521 281.125L156.818 236.325L216.393 227.218C219.361 226.764 222.172 225.585 224.577 223.786C226.981 221.987 228.906 219.624 230.181 216.905L256 161.902L281.819 216.905C283.094 219.624 285.019 221.987 287.423 223.786C289.828 225.585 292.639 226.764 295.607 227.218ZM512 256C512 397.166 397.166 512 256 512C114.834 512 0 397.166 0 256C0 114.834 114.834 0 256 0C397.166 0 512 114.834 512 256ZM410.478 217.819C409.408 214.636 407.482 211.808 404.911 209.647C402.34 207.486 399.224 206.075 395.904 205.568L310.784 192.549L272.567 111.086C271.092 107.939 268.752 105.278 265.819 103.414C262.887 101.55 259.484 100.559 256.009 100.559C252.534 100.559 249.131 101.55 246.199 103.414C243.267 105.278 240.926 107.939 239.451 111.086L201.216 192.549L116.096 205.55C112.772 206.056 109.652 207.47 107.079 209.634C104.506 211.799 102.58 214.631 101.512 217.82C100.445 221.008 100.277 224.429 101.027 227.706C101.777 230.984 103.416 233.991 105.765 236.398L167.899 300.069L153.179 390.199C152.644 393.58 153.067 397.044 154.4 400.197C155.733 403.351 157.923 406.067 160.722 408.039C163.52 410.012 166.815 411.16 170.233 411.355C173.651 411.55 177.055 410.784 180.059 409.143L256 367.177L331.922 409.143C334.924 410.812 338.337 411.598 341.767 411.41C345.196 411.223 348.503 410.069 351.305 408.082C357.01 404.059 359.954 397.111 358.821 390.199L344.101 300.05L406.235 236.398C408.582 233.99 410.22 230.982 410.968 227.705C411.716 224.427 411.547 221.007 410.478 217.819Z" fill="black"/>
</g>
<defs>
<clipPath id="clip0_678_1304">
<rect width="512" height="512" fill="white"/>
</clipPath>
</defs>
</svg>
