<svg width="512" height="512" viewBox="0 0 512 512" fill="none" xmlns="http://www.w3.org/2000/svg">
<g clip-path="url(#clip0_678_1308)">
<path d="M256 0C213.246 0 0 3.605 0 74.668V145.449C0 164.5 8.406 182.422 23.04 194.625L192 335.34V490.668C192.001 494.632 193.105 498.517 195.189 501.889C197.272 505.261 200.253 507.987 203.797 509.762C206.761 511.231 210.024 511.997 213.332 512C217.948 512.002 222.44 510.505 226.132 507.734L302.91 450.156C313.602 442.133 320 429.375 320 416V335.34L488.96 194.625C503.595 182.422 512 164.5 512 145.449V74.668C512 3.605 298.754 0 256 0ZM256 42.668C375.23 42.668 446.977 62.016 465.984 74.668C446.977 87.316 375.23 106.668 256 106.668C136.77 106.668 65.023 87.316 46.016 74.668C65.023 62.016 136.77 42.668 256 42.668Z" fill="black"/>
</g>
<defs>
<clipPath id="clip0_678_1308">
<rect width="512" height="512" fill="white"/>
</clipPath>
</defs>
</svg>
