<?xml version="1.0" encoding="UTF-8"?><!DOCTYPE svg PUBLIC "-//W3C//DTD SVG 1.1//EN" "http://www.w3.org/Graphics/SVG/1.1/DTD/svg11.dtd"><svg xmlns="http://www.w3.org/2000/svg" xmlns:xlink="http://www.w3.org/1999/xlink"><defs/><symbol id="theme" viewBox="0 0 16 16">
<path fill-rule="evenodd" clip-rule="evenodd" d="M3.78243 12.1834C3.69201 12.1988 3.60758 12.2388 3.53836 12.2989C3.46915 12.3591 3.41782 12.4372 3.38999 12.5246C3.36217 12.612 3.35892 12.7053 3.3806 12.7945C3.40229 12.8836 3.44806 12.965 3.51293 13.0299C6.13943 15.6564 10.4039 15.6564 13.0304 13.0299C15.6569 10.4034 15.6569 6.13887 13.0304 3.51237C12.9656 3.4475 12.8841 3.40172 12.795 3.38004C12.7059 3.35836 12.6125 3.36161 12.5251 3.38943C12.4377 3.41726 12.3597 3.46858 12.2995 3.5378C12.2393 3.60702 12.1993 3.69145 12.1839 3.78187C11.8994 5.45737 10.9149 7.56387 9.23993 9.23937C7.56443 10.9144 5.45793 11.8989 3.78243 12.1834ZM4.95593 10.8949C6.30367 10.3383 7.52902 9.52256 8.56243 8.49387C9.53933 7.51247 10.3247 6.35758 10.8784 5.08837C9.23893 4.32237 7.22543 4.61587 5.87293 5.96887C4.54193 7.29987 4.23643 9.26987 4.95593 10.8949ZM1.50293 9.12887H3.19793C3.33054 9.12887 3.45771 9.07619 3.55148 8.98242C3.64525 8.88865 3.69793 8.76148 3.69793 8.62887C3.69793 8.49626 3.64525 8.36908 3.55148 8.27531C3.45771 8.18155 3.33054 8.12887 3.19793 8.12887H1.50293C1.37032 8.12887 1.24314 8.18155 1.14938 8.27531C1.05561 8.36908 1.00293 8.49626 1.00293 8.62887C1.00293 8.76148 1.05561 8.88865 1.14938 8.98242C1.24314 9.07619 1.37032 9.12887 1.50293 9.12887ZM3.22993 3.96037L4.42843 5.15837C4.47485 5.20479 4.52996 5.24161 4.59062 5.26674C4.65127 5.29186 4.71628 5.30479 4.78193 5.30479C4.84758 5.30479 4.91259 5.29186 4.97324 5.26674C5.0339 5.24161 5.08901 5.20479 5.13543 5.15837C5.18185 5.11194 5.21868 5.05683 5.2438 4.99618C5.26892 4.93553 5.28185 4.87052 5.28185 4.80487C5.28185 4.73922 5.26892 4.67421 5.2438 4.61355C5.21868 4.5529 5.18185 4.49779 5.13543 4.45137L3.93693 3.25287C3.84311 3.15911 3.71589 3.10647 3.58325 3.10652C3.45062 3.10656 3.32343 3.1593 3.22968 3.25312C3.13593 3.34694 3.08328 3.47416 3.08333 3.60679C3.08338 3.73943 3.13611 3.86661 3.22993 3.96037ZM8.10593 1.52637V3.22087C8.10593 3.35348 8.15861 3.48065 8.25238 3.57442C8.34614 3.66819 8.47332 3.72087 8.60593 3.72087C8.73854 3.72087 8.86571 3.66819 8.95948 3.57442C9.05325 3.48065 9.10593 3.35348 9.10593 3.22087V1.52637C9.10593 1.39376 9.05325 1.26658 8.95948 1.17281C8.86571 1.07905 8.73854 1.02637 8.60593 1.02637C8.47332 1.02637 8.34614 1.07905 8.25238 1.17281C8.15861 1.26658 8.10593 1.39376 8.10593 1.52637Z"/>
</symbol></svg>