<svg width="512" height="512" viewBox="0 0 512 512" fill="none" xmlns="http://www.w3.org/2000/svg">
<g clip-path="url(#clip0_61_11)">
<path d="M498.195 222.695L498.16 222.66L289.305 13.813C280.402 4.905 268.566 0 255.977 0C243.387 0 231.551 4.902 222.645 13.809L13.8978 222.55C13.8278 222.62 13.7578 222.694 13.6878 222.765C-4.5942 241.151 -4.5622 270.983 13.7778 289.323C22.1558 297.706 33.2228 302.561 45.0548 303.069C45.5348 303.116 46.0198 303.139 46.5078 303.139H54.8318V456.839C54.8318 487.254 79.5778 512 110 512H191.71C199.992 512 206.71 505.285 206.71 497V376.5C206.71 362.621 218 351.332 231.879 351.332H280.074C293.954 351.332 305.242 362.622 305.242 376.5V497C305.242 505.285 311.957 512 320.242 512H401.953C432.375 512 457.121 487.254 457.121 456.84V303.14H464.84C477.426 303.14 489.262 298.238 498.172 289.332C516.532 270.961 516.539 241.078 498.195 222.695Z" fill="black"/>
</g>
<defs>
<clipPath id="clip0_61_11">
<rect width="512" height="512" fill="white"/>
</clipPath>
</defs>
</svg>
